<svg width="1448" height="588" viewBox="0 0 1448 588" fill="none" xmlns="http://www.w3.org/2000/svg">
<rect width="1448" height="588" fill="#F5F5F5"/>
<rect y="-96" width="1449" height="834" fill="#FFF4B8"/>
<path d="M1052.97 -97.9287C1121.82 -189.132 886.736 -122.875 767.999 -135.083L0 -112.502L29.8832 749.138L1088.39 832C1081.02 784.728 980.308 555.207 1052.97 450.833C1141.37 323.867 1143.38 313.71 1101.63 180.595C1059.88 47.4812 984.123 -6.72533 1052.97 -97.9287Z" fill="#FFF0A0"/>
<path d="M481.166 52.3516C514.319 -36.2503 409.986 -109.14 352.811 -121L-17 -99.0635L-2.61046 738H481.166C477.616 692.076 483.526 582.412 535.558 511.145C587.591 439.878 535.27 358.392 481.166 290.978C427.061 223.563 448.012 140.954 481.166 52.3516Z" fill="#FFEB85"/>
</svg>
