<svg width="2517" height="1561" viewBox="0 0 2517 1561" fill="none" xmlns="http://www.w3.org/2000/svg">
<rect width="2517" height="1561" fill="#F5F5F5"/>
<rect width="2517" height="1561" fill="#FFEB85"/>
<path d="M1828.5 -2.49996C1948.06 -173.103 1539.83 -49.1636 1333.64 -71.9998L0 -29.7613L51.8926 1582L1890 1737C1877.2 1648.57 1702.31 1219.24 1828.5 1024C1982 786.5 1985.5 767.5 1913 518.5C1840.5 269.5 1708.94 168.103 1828.5 -2.49996Z" fill="#FFF0A0"/>
<path d="M835.5 279.5C893.1 113.9 711.833 -22.3333 612.5 -44.5L-30 -3.5L-5 1561H835.5C829.333 1475.17 839.6 1270.2 930 1137C1020.4 1003.8 929.5 851.5 835.5 725.5C741.5 599.5 777.9 445.1 835.5 279.5Z" fill="#FFF4B8"/>
</svg>
