<svg width="1449" height="367" viewBox="0 0 1449 367" fill="none" xmlns="http://www.w3.org/2000/svg">
<rect width="1449" height="367" fill="#F5F5F5"/>
<rect y="-143" width="1449" height="834" fill="#FFF4B8"/>
<path d="M1052.97 -144.929C1121.82 -236.132 886.736 -169.875 767.999 -182.083L0 -159.502L29.8832 702.138L1088.39 785C1081.02 737.728 980.308 508.207 1052.97 403.833C1141.37 276.867 1143.38 266.71 1101.63 133.595C1059.88 0.481247 984.123 -53.7253 1052.97 -144.929Z" fill="#FFF0A0"/>
<path d="M481.166 5.35159C514.319 -83.2503 409.986 -156.14 352.811 -168L-17 -146.064L-2.61046 691H481.166C477.616 645.076 483.526 535.412 535.558 464.145C587.591 392.878 535.27 311.392 481.166 243.978C427.061 176.563 448.012 93.9535 481.166 5.35159Z" fill="#FFEB85"/>
</svg>
