<svg width="2517" height="1100" viewBox="0 0 2517 1100" fill="none" xmlns="http://www.w3.org/2000/svg">
<rect width="2517" height="1100" fill="#F5F5F5"/>
<rect x="1" y="-180" width="2517" height="1561" fill="#FFEB85"/>
<path d="M1829.5 -182.5C1949.06 -353.103 1540.83 -229.164 1334.64 -252L1 -209.761L52.8926 1402L1891 1557C1878.2 1468.57 1703.31 1039.24 1829.5 844C1983 606.5 1986.5 587.5 1914 338.5C1841.5 89.5 1709.94 -11.8974 1829.5 -182.5Z" fill="#FFF0A0"/>
<path d="M836.5 99.5C894.1 -66.1 712.833 -202.333 613.5 -224.5L-29 -183.5L-4 1381H836.5C830.333 1295.17 840.6 1090.2 931 957C1021.4 823.8 930.5 671.5 836.5 545.5C742.5 419.5 778.9 265.1 836.5 99.5Z" fill="#FFF4B8"/>
</svg>
